# xmcd CD database file
#
# Track frame offsets:
#	150
#	16210
#	32690
#	44839
#	60582
#	80120
#	98907
#	110225
#	133385
#	148780
#	163885
#	179730
#
# Disc length: 2630 seconds
#
# Revision: 0
# Processed by: cddbd v1.5.2PL0 Copyright (c) Steve Scherf et al.
# Submitted via: CDex 1.70beta2
#
DISCID=bb0a440c
DTITLE=Dick Frost - Diamonds
DYEAR=1900
DGENRE=Country
TTITLE0=Run And Hide ( 1900 ) - Dick Frost
TTITLE1=Eyes ( 1900 ) - Dick Frost
TTITLE2=Roughin' It ( 1900 ) - Dick Frost
TTITLE3=Backwards Guy ( 1900 ) - Dick Frost
TTITLE4=No Better Place ( 1900 ) - Dick Frost
TTITLE5=Stranger ( 1900 ) - Dick Frost
TTITLE6=Colorado Is The Place ( 1900 ) - Dick Frost
TTITLE7=Hearts In His Eyes ( 1900 ) - Dick Frost
TTITLE8=Diamonds In The Mango Tree ( 1900 ) - Dick Frost
TTITLE9=Hello Montezuma ( 1900 ) - Dick Frost
TTITLE10=You Are In Love ( 1900 ) - Dick Frost
TTITLE11=Trashy Women ( 1900 ) - Dick Frost
EXTD=
EXTT0=
EXTT1=
EXTT2=
EXTT3=
EXTT4=
EXTT5=
EXTT6=
EXTT7=
EXTT8=
EXTT9=
EXTT10=
EXTT11=
PLAYORDER=
